HIERARCHY
ROOT Hips
{
  OFFSET 2.09245 94.0508 -13.8849
  CHANNELS 6 Xposition Yposition Zposition Zrotation Xrotation Yrotation
  JOINT Spine
  {
    OFFSET 0 14.0523 -2.43751
    CHANNELS 6 Xposition Yposition Zposition Zrotation Xrotation Yrotation
    JOINT Spine1
    {
      OFFSET 0 10.3184 0
      CHANNELS 6 Xposition Yposition Zposition Zrotation Xrotation Yrotation
      JOINT Spine2
      {
        OFFSET 0 10.3184 0
        CHANNELS 6 Xposition Yposition Zposition Zrotation Xrotation Yrotation
        JOINT Spine3
        {
          OFFSET 0 10.3184 0
          CHANNELS 6 Xposition Yposition Zposition Zrotation Xrotation Yrotation
          JOINT Neck
          {
            OFFSET 0 13.2665 1.32665
            CHANNELS 6 Xposition Yposition Zposition Zrotation Xrotation Yrotation
            JOINT Neck1
            {
              OFFSET 0 4.28184 0
              CHANNELS 6 Xposition Yposition Zposition Zrotation Xrotation Yrotation
              JOINT Head
              {
                OFFSET 0 4.28184 0
                CHANNELS 6 Xposition Yposition Zposition Zrotation Xrotation Yrotation
                End Site
                {
                  OFFSET 0 9.72808 0
                }
              }
            }
          }
          JOINT RightShoulder
          {
            OFFSET 0 9.47607 5.27092
            CHANNELS 6 Xposition Yposition Zposition Zrotation Xrotation Yrotation
            JOINT RightArm
            {
              OFFSET 0 20.9618 0
              CHANNELS 6 Xposition Yposition Zposition Zrotation Xrotation Yrotation
              JOINT RightForeArm
              {
                OFFSET 0 28.5318 0
                CHANNELS 6 Xposition Yposition Zposition Zrotation Xrotation Yrotation
                JOINT RightHand
                {
                  OFFSET 0 25.9042 0
                  CHANNELS 6 Xposition Yposition Zposition Zrotation Xrotation Yrotation
                  JOINT RightHandThumb1
                  {
                    OFFSET -3.07697 3.53183 2.62623
                    CHANNELS 6 Xposition Yposition Zposition Zrotation Xrotation Yrotation
                    End Site
                    {
                      OFFSET 0 0 0
                    }
                  }
                  JOINT RightHandMiddle1
                  {
                    OFFSET 0 9.41822 -0.0603732
                    CHANNELS 6 Xposition Yposition Zposition Zrotation Xrotation Yrotation
                    End Site
                    {
                      OFFSET 0 0 0
                    }
                  }
                }
              }
            }
          }
          JOINT LeftShoulder
          {
            OFFSET 0 9.47607 5.27092
            CHANNELS 6 Xposition Yposition Zposition Zrotation Xrotation Yrotation
            JOINT LeftArm
            {
              OFFSET 0 20.9618 0
              CHANNELS 6 Xposition Yposition Zposition Zrotation Xrotation Yrotation
              JOINT LeftForeArm
              {
                OFFSET 0 28.5318 0
                CHANNELS 6 Xposition Yposition Zposition Zrotation Xrotation Yrotation
                JOINT LeftHand
                {
                  OFFSET 0 25.9042 0
                  CHANNELS 6 Xposition Yposition Zposition Zrotation Xrotation Yrotation
                  JOINT LeftHandThumb1
                  {
                    OFFSET 3.07697 3.53183 2.62623
                    CHANNELS 6 Xposition Yposition Zposition Zrotation Xrotation Yrotation
                    End Site
                    {
                      OFFSET 0 0 0
                    }
                  }
                  JOINT LeftHandMiddle1
                  {
                    OFFSET 0 9.41822 -0.0603732
                    CHANNELS 6 Xposition Yposition Zposition Zrotation Xrotation Yrotation
                    End Site
                    {
                      OFFSET 0 0 0
                    }
                  }
                }
              }
            }
          }
        }
      }
    }
  }
  JOINT RightUpLeg
  {
    OFFSET -10.9378 0 0
    CHANNELS 6 Xposition Yposition Zposition Zrotation Xrotation Yrotation
    JOINT RightLeg
    {
      OFFSET 0 -45.4583 0
      CHANNELS 6 Xposition Yposition Zposition Zrotation Xrotation Yrotation
      JOINT RightFoot
      {
        OFFSET 0 -42.0045 0
        CHANNELS 6 Xposition Yposition Zposition Zrotation Xrotation Yrotation
        JOINT RightForeFoot
        {
          OFFSET 0 -4.38118 0
          CHANNELS 6 Xposition Yposition Zposition Zrotation Xrotation Yrotation
          JOINT RightToeBase
          {
            OFFSET 0 0 17.1581
            CHANNELS 6 Xposition Yposition Zposition Zrotation Xrotation Yrotation
            End Site
            {
              OFFSET 0 0 6.32614
            }
          }
        }
      }
    }
  }
  JOINT LeftUpLeg
  {
    OFFSET 10.9378 0 0
    CHANNELS 6 Xposition Yposition Zposition Zrotation Xrotation Yrotation
    JOINT LeftLeg
    {
      OFFSET 0 -45.4583 0
      CHANNELS 6 Xposition Yposition Zposition Zrotation Xrotation Yrotation
      JOINT LeftFoot
      {
        OFFSET 0 -42.0045 0
        CHANNELS 6 Xposition Yposition Zposition Zrotation Xrotation Yrotation
        JOINT LeftForeFoot
        {
          OFFSET 0 -4.38118 0
          CHANNELS 6 Xposition Yposition Zposition Zrotation Xrotation Yrotation
          JOINT LeftToeBase
          {
            OFFSET 0 0 17.1581
            CHANNELS 6 Xposition Yposition Zposition Zrotation Xrotation Yrotation
            End Site
            {
              OFFSET 0 0 7.20554
            }
          }
        }
      }
    }
  }
}
MOTION
Frames:	4
Frame Time:	0.00833333
3.14839 93.9295 -13.5633 0.341558 -20.3015 2.46243 -4.44089e-016 14.0523 -2.43751 0.618822 15.9035 0.385597 0 10.3184 -3.55271e-015 0.784227 6.67466 -0.321256 8.88178e-016 10.3184 0 0.590367 5.28539 -1.87064 0 10.3184 0 0.25533 2.20804 -0.16471 0 13.2665 1.32665 1.89149 -2.68208 -0.578684 -1.77636e-015 4.28184 0 -2.54294 0.407944 2.4901 8.88178e-016 4.28184 0 -2.68009 -11.0737 -0.294906 -8.88178e-016 9.47607 5.27092 88.4417 -23.2762 -0.615896 2.84217e-014 20.9618 0 12.8515 12.4453 40.2839 0 28.5318 -2.84217e-014 2.77339e-005 32.3807 -4.38412 0 25.9042 -1.42109e-014 4.34542 -11.7301 3.61923e-006 -3.07697 3.53183 2.62624 -2.41482e-015 45.2637 4.51883e-015 0 9.41822 -0.0603732 -1.19271e-015 0 6.36111e-015 -8.88178e-016 9.47607 5.27092 -90.9103 -21.7563 -0.337436 0 20.9618 0 -7.66308 22.9472 -21.7385 0 28.5318 3.55271e-015 -6.35961e-007 24.6979 2.03239 0 25.9042 1.77636e-015 -2.93572 -14.044 2.16931e-007 3.07697 3.53183 2.62624 6.40522e-015 45.2637 -6.77824e-015 -2.84217e-014 9.41822 -0.0603732 -7.95139e-016 0 -0 -10.9378 1.42109e-014 7.10543e-015 -4.4801 19.4182 -12.8904 0 -45.4583 8.88178e-016 -7.93822e-016 14.4345 3.28423e-015 0 -42.0045 3.55271e-015 0.816543 -10.8575 -7.77953 3.55271e-015 -4.38118 0 -2.98177e-016 -3.97569e-016 -0 0 -8.88178e-016 17.1581 -1.77319e-015 12.0659 3.25241e-015 10.9378 0 3.55271e-015 3.35677 20.8442 7.05231 -3.55271e-015 -45.4583 1.77636e-015 -2.81404e-016 10.9005 1.6195e-015 0 -42.0045 0 0.660002 -11.0179 6.35982 0 -4.38118 0 -1.2424e-016 -9.93923e-017 3.18055e-015 0 2.22045e-016 17.1581 -6.75964e-016 11.3943 -3.2445e-015 
3.15329 93.9296 -13.5682 0.342833 -20.2849 2.4627 -4.44089e-016 14.0523 -2.43751 0.619565 15.901 0.385123 0 10.3184 0 0.784408 6.67272 -0.321572 0 10.3184 0 0.59111 5.28485 -1.87188 8.88178e-016 10.3184 0 0.253964 2.20635 -0.16405 0 13.2665 1.32665 1.89193 -2.69207 -0.578254 3.55271e-015 4.28184 0 -2.54329 0.402705 2.48992 8.88178e-016 4.28184 7.10543e-015 -2.68194 -11.0761 -0.295318 0 9.47607 5.27092 88.4626 -23.2649 -0.607356 2.84217e-014 20.9618 0 12.8346 12.4106 40.2359 0 28.5318 0 3.70292e-005 32.3965 -4.32728 0 25.9042 7.10543e-015 4.36369 -11.7227 4.8255e-006 -3.07697 3.53183 2.62624 -1.0425e-014 45.2637 1.35565e-014 0 9.41822 -0.0603732 -1.98785e-015 0 6.36111e-015 0 9.47607 5.27092 -90.909 -21.752 -0.33688 -2.84217e-014 20.9618 0 -7.66909 22.9268 -21.6365 0 28.5318 3.55271e-015 -8.63197e-007 24.7171 2.03122 0 25.9042 7.10543e-015 -2.93824 -14.0472 2.89246e-007 3.07697 3.53183 2.62624 3.59283e-015 45.2637 -2.25941e-015 -5.68434e-014 9.41822 -0.0603732 -1.19271e-015 3.18055e-015 -0 -10.9378 1.42109e-014 0 -4.48528 19.396 -12.8945 0 -45.4583 8.88178e-016 -1.73937e-016 14.4437 -0 0 -42.0045 0 0.819853 -10.8595 -7.77611 0 -4.38118 0 -9.93923e-016 0 -9.54166e-015 -3.55271e-015 -2.22045e-016 17.1581 -7.11418e-016 12.0694 -3.25245e-015 10.9378 0 -1.42109e-014 3.35185 20.829 7.05477 0 -45.4583 0 3.89644e-016 10.8953 1.61947e-015 -3.55271e-015 -42.0045 -3.55271e-015 0.662692 -11.0173 6.35973 0 -4.38118 0 -4.96962e-017 3.97569e-016 -0 3.55271e-015 -2.22045e-016 17.1581 -7.45443e-016 11.3947 -0 
3.15721 93.9284 -13.5689 0.344107 -20.2682 2.46296 -4.44089e-016 14.0523 -2.43751 0.620309 15.8985 0.384649 0 10.3184 0 0.78459 6.67078 -0.321889 0 10.3184 0 0.591853 5.2843 -1.87312 -8.88178e-016 10.3184 0 0.252598 2.20465 -0.16339 0 13.2665 1.32665 1.89236 -2.70206 -0.577824 0 4.28184 0 -2.54364 0.397465 2.48973 0 4.28184 0 -2.6838 -11.0785 -0.29573 8.88178e-016 9.47607 5.27092 88.4835 -23.2537 -0.598821 0 20.9618 0 12.8176 12.3759 40.1878 0 28.5318 0 2.78064e-005 32.4123 -4.27044 0 25.9042 0 4.38197 -11.7153 3.61903e-006 -3.07697 3.53183 2.62624 -3.60753e-015 45.2637 4.51883e-015 0 9.41822 -0.0603732 7.95139e-016 7.95139e-016 6.36111e-015 8.88178e-016 9.47607 5.27092 -90.9076 -21.7477 -0.336325 0 20.9618 7.10543e-015 -7.67506 22.9065 -21.5346 -2.84217e-014 28.5318 1.06581e-014 -6.57191e-007 24.7363 2.03004 0 25.9042 8.88178e-015 -2.94075 -14.0504 2.16937e-007 3.07697 3.53183 2.62624 3.19526e-015 45.2637 -2.25941e-015 2.84217e-014 9.41822 -0.0603732 -7.95139e-016 -1.59028e-015 1.59028e-015 -10.9378 1.42109e-014 -3.55271e-015 -4.49046 19.3738 -12.8986 0 -45.4583 8.88178e-016 4.71887e-016 14.4529 -3.2845e-015 0 -42.0045 0 0.823163 -10.8615 -7.77269 3.55271e-015 -4.38118 0 -1.98785e-016 0 3.18055e-015 3.55271e-015 2.22045e-016 17.1581 -1.83316e-016 12.0729 3.25249e-015 10.9378 1.42109e-014 0 3.34692 20.8138 7.05723 3.55271e-015 -45.4583 0 -1.98785e-016 10.8901 -0 -3.55271e-015 -42.0045 3.55271e-015 0.665383 -11.0166 6.35963 0 -4.38118 0 -2.48481e-017 4.96962e-016 -0 0 2.22045e-016 17.1581 -7.95139e-016 11.3951 -0 
3.16138 93.9284 -13.5719 0.345381 -20.2515 2.46323 4.44089e-016 14.0523 -2.43751 0.621052 15.896 0.384175 0 10.3184 1.77636e-015 0.784772 6.66885 -0.322206 8.88178e-016 10.3184 0 0.592597 5.28375 -1.87436 -8.88178e-016 10.3184 0 0.251232 2.20296 -0.16273 0 13.2665 1.32665 1.8928 -2.71205 -0.577394 -1.77636e-015 4.28184 0 -2.54399 0.392226 2.48955 0 4.28184 0 -2.68566 -11.0809 -0.296141 8.88178e-016 9.47607 5.27092 88.5044 -23.2424 -0.590291 0 20.9618 0 12.8006 12.3412 40.1397 -2.84217e-014 28.5318 0 5.58493e-008 32.428 -4.21359 0 25.9042 1.42109e-014 4.40025 -11.7078 3.24813e-015 -3.07697 3.53183 2.62624 -4.0051e-015 45.2637 4.51883e-015 0 9.41822 -0.0603732 -3.97569e-016 -7.95139e-016 6.36111e-015 8.88178e-016 9.47607 5.27092 -90.9063 -21.7434 -0.33577 -2.84217e-014 20.9618 0 -7.68099 22.8861 -21.4328 -2.84217e-014 28.5318 0 -1.77426e-008 24.7555 2.02887 -2.84217e-014 25.9042 1.77636e-015 -2.94327 -14.0536 -1.63934e-015 3.07697 3.53183 2.62624 5.61008e-015 45.2637 -6.77824e-015 2.84217e-014 9.41822 -0.0603732 -7.95139e-016 0 1.59028e-015 -10.9378 1.42109e-014 3.55271e-015 -4.49564 19.3516 -12.9027 -3.55271e-015 -45.4583 0 1.56575e-015 14.4621 -3.28464e-015 0 -42.0045 0 0.826473 -10.8634 -7.76927 0 -4.38118 0 1.98785e-016 0 6.36111e-015 0 0 17.1581 8.94531e-016 12.0764 -0 10.9378 1.42109e-014 3.55271e-015 3.34199 20.7986 7.05968 0 -45.4583 0 -2.48481e-017 10.8849 -0 0 -42.0045 0 0.668074 -11.016 6.35954 3.55271e-015 -4.38118 0 1.73937e-016 1.98785e-016 3.18055e-015 -3.55271e-015 4.44089e-016 17.1581 2.73329e-016 11.3954 -0 
